####
#
# OBJ File Generated by Meshlab
#
####
# Object D00474.obj
#
# Vertices: 66
# Faces: 110
#
####
vn 1.776689 2.464389 3.014675
v -0.145641 0.026510 0.003730
vn -0.096008 -0.537682 2.436431
v -0.115561 0.041088 0.004243
vn -0.325783 -0.105094 3.774351
v -0.108690 0.035426 0.003979
vn 1.290426 0.403506 1.619963
v -0.150256 0.028743 0.006850
vn 1.290455 -0.403495 1.620015
v -0.150256 0.035111 0.006850
vn 1.948047 -2.495109 3.010356
v -0.145641 0.037344 0.003730
vn 0.199913 -1.272251 2.394882
v -0.136634 0.041757 0.005366
vn -0.291017 0.106095 3.777585
v -0.108690 0.028428 0.003979
vn 0.153536 0.063390 1.599280
v -0.087659 0.034666 0.003105
vn 0.285598 -0.028350 6.128197
v -0.098142 0.031857 0.004223
vn 0.154348 -0.063519 1.599259
v -0.087659 0.029189 0.003105
vn 0.392094 1.019000 2.464475
v -0.136634 0.022098 0.005366
vn -0.345992 0.563753 2.412631
v -0.115561 0.022767 0.004243
vn -0.142002 3.182427 2.857375
v -0.124872 0.022296 0.002538
vn 2.124838 -1.335813 -2.397237
v -0.016980 0.030005 0.000000
vn 2.125071 1.335621 -2.397548
v -0.016980 0.033849 0.000000
vn 2.125071 1.335621 2.397548
v -0.016980 0.033849 0.006210
vn 2.033044 2.671242 -0.000000
v -0.016980 0.035771 0.003105
vn 2.033510 -2.671627 -0.000000
v -0.016980 0.028084 0.003105
vn 2.124838 -1.335813 2.397237
v -0.016980 0.030005 0.006210
vn -2.125071 1.335621 -2.397548
v -0.087659 0.033849 0.000000
vn -2.125071 1.335621 2.397548
v -0.087659 0.033849 0.006210
vn -2.033044 2.671242 -0.000000
v -0.087659 0.035771 0.003105
vn -2.124838 -1.335813 2.397237
v -0.087659 0.030005 0.006210
vn -2.124838 -1.335813 -2.397237
v -0.087659 0.030005 0.000000
vn -2.033510 -2.671627 0.000000
v -0.087659 0.028084 0.003105
vn 0.000000 2.671242 -4.795096
v -0.047902 0.033849 0.000000
vn 0.000000 2.671242 4.795096
v -0.061154 0.033849 0.006210
vn 0.000000 -2.671627 -4.794473
v -0.052319 0.030005 0.000000
vn 0.000000 -2.671627 4.794473
v -0.052319 0.030005 0.006210
vn 0.000000 2.671242 4.795096
v -0.034649 0.033849 0.006210
vn 0.000000 5.342483 0.000000
v -0.043485 0.035771 0.003105
vn 0.000000 -2.671627 -4.794473
v -0.074407 0.030005 0.000000
vn 0.000000 -2.671627 -4.794473
v -0.034650 0.030005 0.000000
vn 0.000000 2.671242 -4.795096
v -0.067780 0.033849 0.000000
vn 0.000000 5.342483 0.000000
v -0.069989 0.035771 0.003105
vn 0.000000 -5.343253 0.000000
v -0.052319 0.028084 0.003105
vn 0.000000 -2.671627 4.794473
v -0.065572 0.030005 0.006210
vn 0.000000 -2.671627 4.794473
v -0.030232 0.030005 0.006210
vn -0.558487 -0.478763 6.119129
v -0.119340 0.033059 0.002322
vn 1.379075 2.822653 0.019694
v -0.143445 0.025420 0.006108
vn 1.379273 -2.822553 0.020059
v -0.143445 0.038434 0.006108
vn -0.010117 -1.063352 2.954178
v -0.126098 0.041423 0.004804
vn 0.152054 -0.685291 3.062166
v -0.098174 0.028809 0.003542
vn 0.151248 0.656639 3.068477
v -0.098174 0.035046 0.003542
vn -0.112647 3.129652 -0.249392
v -0.126098 0.022433 0.004804
vn 0.000000 -2.671627 -4.794473
v -0.061154 0.030005 0.000000
vn 0.000000 2.671242 4.795096
v -0.047901 0.033849 0.006210
vn 0.000000 5.342483 -0.000000
v -0.056737 0.035771 0.003105
vn 0.000000 2.671242 -4.795096
v -0.036306 0.033849 0.000000
vn 0.000000 2.671242 -4.795096
v -0.077719 0.033849 0.000000
vn 0.000000 -2.671627 -4.794473
v -0.025815 0.030005 0.000000
vn 0.000000 -2.671627 -4.794473
v -0.043484 0.030005 0.000000
vn 0.000000 2.671242 -4.795096
v -0.024710 0.033849 0.000000
vn 0.000000 2.671242 4.795096
v -0.074407 0.033849 0.006210
vn 0.000000 2.671242 4.795096
v -0.025814 0.033849 0.006210
vn 0.000000 2.671242 -4.795096
v -0.057841 0.033849 0.000000
vn 0.000000 -2.671627 4.794473
v -0.043484 0.030005 0.006210
vn 0.000000 5.342483 0.000000
v -0.030233 0.035771 0.003105
vn 0.000000 -2.671627 4.794473
v -0.078824 0.030005 0.006210
vn 0.000000 -5.343253 0.000000
v -0.069989 0.028084 0.003105
vn 0.000000 -5.343253 -0.000000
v -0.034649 0.028084 0.003105
vn 0.000000 -5.343253 -0.000000
v -0.061154 0.028084 0.003105
vn 0.000000 -5.343253 -0.000000
v -0.043484 0.028084 0.003105
vn 0.544490 -0.832163 5.956741
v -0.136480 0.034892 0.002379
vn 0.458844 -0.368080 5.796212
v -0.130634 0.032632 0.001200
# 66 vertices, 0 vertices normals

f 4//4 41//41 1//1
f 5//5 6//6 42//42
f 2//2 43//43 40//40
f 1//1 6//6 4//4
f 11//11 9//9 10//10
f 11//11 10//10 44//44
f 3//3 10//10 45//45
f 3//3 8//8 10//10
f 12//12 46//46 14//14
f 7//7 6//6 65//65
f 4//4 6//6 5//5
f 17//17 16//16 18//18
f 15//15 17//17 20//20
f 16//16 17//17 15//15
f 15//15 20//20 19//19
f 24//24 25//25 26//26
f 24//24 22//22 21//21
f 25//25 24//24 21//21
f 21//21 22//22 23//23
f 31//31 48//48 58//58
f 27//27 32//32 50//50
f 34//34 53//53 50//50
f 55//55 22//22 60//60
f 49//49 28//28 48//48
f 34//34 54//54 52//52
f 47//47 35//35 57//57
f 18//18 59//59 56//56
f 57//57 35//35 49//49
f 18//18 54//54 59//59
f 63//63 38//38 61//61
f 30//30 28//28 38//38
f 62//62 64//64 34//34
f 2//2 40//40 3//3
f 41//41 12//12 1//1
f 42//42 6//6 7//7
f 3//3 40//40 8//8
f 44//44 10//10 8//8
f 45//45 10//10 9//9
f 46//46 13//13 14//14
f 6//6 1//1 65//65
f 12//12 65//65 1//1
f 13//13 40//40 14//14
f 40//40 13//13 8//8
f 35//35 47//47 33//33
f 48//48 30//30 58//58
f 30//30 48//48 28//28
f 36//36 28//28 49//49
f 23//23 51//51 21//21
f 50//50 54//54 34//34
f 29//29 27//27 53//53
f 50//50 53//53 27//27
f 33//33 51//51 35//35
f 33//33 25//25 51//51
f 21//21 51//51 25//25
f 16//16 54//54 18//18
f 36//36 55//55 28//28
f 18//18 56//56 17//17
f 39//39 56//56 31//31
f 28//28 55//55 38//38
f 60//60 38//38 55//55
f 32//32 48//48 31//31
f 48//48 32//32 49//49
f 36//36 49//49 35//35
f 35//35 51//51 36//36
f 37//37 58//58 30//30
f 37//37 63//63 29//29
f 20//20 56//56 39//39
f 56//56 20//20 17//17
f 54//54 16//16 52//52
f 15//15 52//52 16//16
f 29//29 57//57 27//27
f 57//57 29//29 47//47
f 32//32 31//31 59//59
f 56//56 59//59 31//31
f 27//27 49//49 32//32
f 49//49 27//27 57//57
f 50//50 59//59 54//54
f 59//59 50//50 32//32
f 26//26 60//60 24//24
f 37//37 30//30 63//63
f 38//38 63//63 30//30
f 61//61 38//38 60//60
f 61//61 60//60 26//26
f 19//19 52//52 15//15
f 29//29 63//63 47//47
f 47//47 61//61 33//33
f 29//29 53//53 37//37
f 24//24 60//60 22//22
f 58//58 39//39 31//31
f 62//62 39//39 58//58
f 34//34 64//64 53//53
f 52//52 62//62 34//34
f 40//40 43//43 66//66
f 63//63 61//61 47//47
f 64//64 58//58 37//37
f 64//64 37//37 53//53
f 66//66 14//14 40//40
f 62//62 58//58 64//64
f 14//14 66//66 12//12
f 66//66 65//65 12//12
f 7//7 65//65 43//43
f 66//66 43//43 65//65
f 22//22 55//55 23//23
f 61//61 26//26 33//33
f 62//62 19//19 39//39
f 19//19 20//20 39//39
f 26//26 25//25 33//33
f 36//36 23//23 55//55
f 23//23 36//36 51//51
f 19//19 62//62 52//52
# 110 faces, 0 coords texture

# End of File
